<?xml version="1.0" encoding="UTF-8"?>
<svg width="512px" height="512px" viewBox="0 0 512 512" version="1.1" xmlns="http://www.w3.org/2000/svg" xmlns:xlink="http://www.w3.org/1999/xlink">
    <title>Artboard Copy</title>
    <g id="Artboard-Copy" stroke="none" stroke-width="1" fill="none" fill-rule="evenodd">
        <g id="Logo-VOID-01" fill-rule="nonzero">
            <path d="M512,0 L0,0 L0,512 C1.44006995,512 172.106737,511.955326 512,511.865978 L512,0 Z" id="Path" fill="#DF0B15"></path>
            <path d="M254.87275,442.300058 L102.873367,69.9041293 L135.886971,69.9041293 C142.6553,69.9041293 149.423628,70.1199276 156.155955,69.9041293 C158.92574,69.48711 161.531308,71.3282622 162.060242,74.0762298 C179.269078,117.235889 196.549917,160.491459 213.90276,203.842939 C227.367414,237.555429 240.844069,271.25593 254.332724,304.944442 C254.728743,305.987467 255.196766,307.030492 256.09681,309.080576 C261.893091,294.694023 267.22135,281.49436 272.621612,268.222765 C298.830886,203.483276 325.040159,138.743786 351.249432,74.004297 C351.903479,71.351424 354.439424,69.6058123 357.153718,69.9400957 C373.426509,69.9400957 389.555292,69.9400957 405.936088,69.9400957 C407.196149,69.9400957 408.45621,69.9400957 410.400305,70.155894 C358.593788,194.132016 306.967281,317.712508 254.87275,442.300058 Z" id="Path" fill="#FFFFFF"></path>
        </g>
    </g>
</svg>